  0
SECTION
  2
HEADER
  9
$ACADVER
  1
AC1009
  9
$EXTMAX
 10
106.699996948242
 20
70.5950012207031
 30
0.0
  9
$EXTMIN
 10
-106.699996948242
 20
-70.5950012207031
 30
0.0
  9
$INSUNITS
 70
     4
  9
$LUNITS
 70
     2
  9
$LUPREC
 70
     4
  9
$MEASUREMENT
 70
     1
  0
ENDSEC
  0
SECTION
  2
TABLES
  0
TABLE
  2
LAYER
 70
     1
  0
LAYER
  2
0
 70
     0
 62
     7
  6
Continuous
  0
ENDTAB
  0
TABLE
  2
APPID
 70
     1
  0
APPID
  2
ACAD
 70
     0
  0
ENDTAB
  0
ENDSEC
  0
SECTION
  2
ENTITIES
  0
POLYLINE
  8
0
 66
     1
 10
0.0
 20
0.0
 30
0.0
 70
     1
  0
VERTEX
  8
0
 10
91.5
 20
70.595
 42
0.0
  0
VERTEX
  8
0
 10
76.5
 20
70.595
 42
0.4142135623731
  0
VERTEX
  8
0
 10
76.3
 20
70.395
 42
0.0
  0
VERTEX
  8
0
 10
76.3
 20
65.595
 42
0.0
  0
VERTEX
  8
0
 10
61.7000000000001
 20
65.595
 42
0.0
  0
VERTEX
  8
0
 10
61.7
 20
70.395
 42
0.4142135623731
  0
VERTEX
  8
0
 10
61.5
 20
70.595
 42
0.0
  0
VERTEX
  8
0
 10
46.5
 20
70.595
 42
0.4142135623731
  0
VERTEX
  8
0
 10
46.3
 20
70.395
 42
0.0
  0
VERTEX
  8
0
 10
46.3
 20
65.595
 42
0.0
  0
VERTEX
  8
0
 10
31.7
 20
65.595
 42
0.0
  0
VERTEX
  8
0
 10
31.7
 20
70.395
 42
0.4142135623731
  0
VERTEX
  8
0
 10
31.5
 20
70.595
 42
0.0
  0
VERTEX
  8
0
 10
16.5
 20
70.595
 42
0.4142135623731
  0
VERTEX
  8
0
 10
16.3
 20
70.395
 42
0.0
  0
VERTEX
  8
0
 10
16.3
 20
65.595
 42
0.0
  0
VERTEX
  8
0
 10
1.7
 20
65.595
 42
0.0
  0
VERTEX
  8
0
 10
1.7
 20
70.395
 42
0.4142135623731
  0
VERTEX
  8
0
 10
1.5
 20
70.595
 42
0.0
  0
VERTEX
  8
0
 10
-13.5
 20
70.595
 42
0.4142135623731
  0
VERTEX
  8
0
 10
-13.7
 20
70.395
 42
0.0
  0
VERTEX
  8
0
 10
-13.7
 20
65.595
 42
0.0
  0
VERTEX
  8
0
 10
-28.3
 20
65.595
 42
0.0
  0
VERTEX
  8
0
 10
-28.3
 20
70.395
 42
0.4142135623731
  0
VERTEX
  8
0
 10
-28.5
 20
70.595
 42
0.0
  0
VERTEX
  8
0
 10
-43.5
 20
70.595
 42
0.4142135623731
  0
VERTEX
  8
0
 10
-43.7
 20
70.395
 42
0.0
  0
VERTEX
  8
0
 10
-43.7
 20
65.595
 42
0.0
  0
VERTEX
  8
0
 10
-58.3
 20
65.595
 42
0.0
  0
VERTEX
  8
0
 10
-58.3
 20
70.395
 42
0.4142135623731
  0
VERTEX
  8
0
 10
-58.5
 20
70.595
 42
0.0
  0
VERTEX
  8
0
 10
-73.5
 20
70.595
 42
0.4142135623731
  0
VERTEX
  8
0
 10
-73.7
 20
70.395
 42
0.0
  0
VERTEX
  8
0
 10
-73.7
 20
65.595
 42
0.0
  0
VERTEX
  8
0
 10
-88.3
 20
65.595
 42
0.0
  0
VERTEX
  8
0
 10
-88.3
 20
70.395
 42
0.4142135623731
  0
VERTEX
  8
0
 10
-88.5
 20
70.595
 42
0.0
  0
VERTEX
  8
0
 10
-106.5
 20
70.595
 42
0.4142135623731
  0
VERTEX
  8
0
 10
-106.7
 20
70.395
 42
0.0
  0
VERTEX
  8
0
 10
-106.7
 20
-70.395
 42
0.4142135623731
  0
VERTEX
  8
0
 10
-106.5
 20
-70.595
 42
0.0
  0
VERTEX
  8
0
 10
-88.5
 20
-70.595
 42
0.4142135623731
  0
VERTEX
  8
0
 10
-88.3
 20
-70.395
 42
0.0
  0
VERTEX
  8
0
 10
-88.3
 20
-65.595
 42
0.0
  0
VERTEX
  8
0
 10
-73.7
 20
-65.595
 42
0.0
  0
VERTEX
  8
0
 10
-73.7
 20
-70.395
 42
0.4142135623731
  0
VERTEX
  8
0
 10
-73.5
 20
-70.595
 42
0.0
  0
VERTEX
  8
0
 10
-58.5
 20
-70.595
 42
0.4142135623731
  0
VERTEX
  8
0
 10
-58.3
 20
-70.395
 42
0.0
  0
VERTEX
  8
0
 10
-58.3
 20
-65.595
 42
0.0
  0
VERTEX
  8
0
 10
-43.7
 20
-65.595
 42
0.0
  0
VERTEX
  8
0
 10
-43.7
 20
-70.395
 42
0.4142135623731
  0
VERTEX
  8
0
 10
-43.5
 20
-70.595
 42
0.0
  0
VERTEX
  8
0
 10
-28.5
 20
-70.595
 42
0.4142135623731
  0
VERTEX
  8
0
 10
-28.3
 20
-70.395
 42
0.0
  0
VERTEX
  8
0
 10
-28.3
 20
-65.595
 42
0.0
  0
VERTEX
  8
0
 10
-13.7
 20
-65.595
 42
0.0
  0
VERTEX
  8
0
 10
-13.7
 20
-70.395
 42
0.4142135623731
  0
VERTEX
  8
0
 10
-13.5
 20
-70.595
 42
0.0
  0
VERTEX
  8
0
 10
1.5
 20
-70.595
 42
0.4142135623731
  0
VERTEX
  8
0
 10
1.7
 20
-70.395
 42
0.0
  0
VERTEX
  8
0
 10
1.7
 20
-65.595
 42
0.0
  0
VERTEX
  8
0
 10
16.3
 20
-65.595
 42
0.0
  0
VERTEX
  8
0
 10
16.3
 20
-70.395
 42
0.4142135623731
  0
VERTEX
  8
0
 10
16.5
 20
-70.595
 42
0.0
  0
VERTEX
  8
0
 10
31.5
 20
-70.595
 42
0.4142135623731
  0
VERTEX
  8
0
 10
31.7
 20
-70.395
 42
0.0
  0
VERTEX
  8
0
 10
31.7
 20
-65.595
 42
0.0
  0
VERTEX
  8
0
 10
46.3
 20
-65.595
 42
0.0
  0
VERTEX
  8
0
 10
46.3
 20
-70.395
 42
0.4142135623731
  0
VERTEX
  8
0
 10
46.5
 20
-70.595
 42
0.0
  0
VERTEX
  8
0
 10
61.5
 20
-70.595
 42
0.4142135623731
  0
VERTEX
  8
0
 10
61.7
 20
-70.395
 42
0.0
  0
VERTEX
  8
0
 10
61.7000000000001
 20
-65.595
 42
0.0
  0
VERTEX
  8
0
 10
76.3
 20
-65.595
 42
0.0
  0
VERTEX
  8
0
 10
76.3
 20
-70.395
 42
0.4142135623731
  0
VERTEX
  8
0
 10
76.5
 20
-70.595
 42
0.0
  0
VERTEX
  8
0
 10
91.5
 20
-70.595
 42
0.4142135623731
  0
VERTEX
  8
0
 10
91.7
 20
-70.395
 42
0.0
  0
VERTEX
  8
0
 10
91.7
 20
-65.595
 42
0.0
  0
VERTEX
  8
0
 10
106.5
 20
-65.595
 42
0.4142135623731
  0
VERTEX
  8
0
 10
106.7
 20
-65.395
 42
0.0
  0
VERTEX
  8
0
 10
106.7
 20
65.395
 42
0.4142135623731
  0
VERTEX
  8
0
 10
106.5
 20
65.595
 42
0.0
  0
VERTEX
  8
0
 10
91.7
 20
65.595
 42
0.0
  0
VERTEX
  8
0
 10
91.7
 20
70.395
 42
0.4142135623731
  0
SEQEND
  0
POLYLINE
  8
0
 66
     1
 10
0.0
 20
0.0
 30
0.0
 70
     1
  0
VERTEX
  8
0
 10
-98.5
 20
23.3
 42
1.0
  0
VERTEX
  8
0
 10
-98.5
 20
20.7
 42
0.0
  0
VERTEX
  8
0
 10
-93.5
 20
20.7
 42
1.0
  0
VERTEX
  8
0
 10
-93.5
 20
23.3
 42
0.0
  0
SEQEND
  0
POLYLINE
  8
0
 66
     1
 10
0.0
 20
0.0
 30
0.0
 70
     1
  0
VERTEX
  8
0
 10
36.5
 20
61.695
 42
1.0
  0
VERTEX
  8
0
 10
36.5
 20
59.095
 42
0.0
  0
VERTEX
  8
0
 10
41.5
 20
59.095
 42
1.0
  0
VERTEX
  8
0
 10
41.5
 20
61.695
 42
0.0
  0
SEQEND
  0
POLYLINE
  8
0
 66
     1
 10
0.0
 20
0.0
 30
0.0
 70
     1
  0
VERTEX
  8
0
 10
-103.3
 20
15.3
 42
0.0
  0
VERTEX
  8
0
 10
-103.3
 20
10.7
 42
0.0
  0
VERTEX
  8
0
 10
-88.7
 20
10.7
 42
0.0
  0
VERTEX
  8
0
 10
-88.7
 20
15.3
 42
0.0
  0
SEQEND
  0
POLYLINE
  8
0
 66
     1
 10
0.0
 20
0.0
 30
0.0
 70
     1
  0
VERTEX
  8
0
 10
81.7
 20
40.595
 42
0.0
  0
VERTEX
  8
0
 10
86.3
 20
40.5950000000001
 42
0.0
  0
VERTEX
  8
0
 10
86.3
 20
55.1950000000001
 42
0.0
  0
VERTEX
  8
0
 10
81.7
 20
55.195
 42
0.0
  0
SEQEND
  0
POLYLINE
  8
0
 66
     1
 10
0.0
 20
0.0
 30
0.0
 70
     1
  0
VERTEX
  8
0
 10
96.5
 20
-61.695
 42
-1.0
  0
VERTEX
  8
0
 10
96.5
 20
-59.095
 42
0.0
  0
VERTEX
  8
0
 10
101.5
 20
-59.095
 42
-1.0
  0
VERTEX
  8
0
 10
101.5
 20
-61.695
 42
0.0
  0
SEQEND
  0
POLYLINE
  8
0
 66
     1
 10
0.0
 20
0.0
 30
0.0
 70
     1
  0
VERTEX
  8
0
 10
81.7
 20
-55.1950000000002
 42
0.0
  0
VERTEX
  8
0
 10
86.3
 20
-55.1950000000001
 42
0.0
  0
VERTEX
  8
0
 10
86.3
 20
-40.5950000000001
 42
0.0
  0
VERTEX
  8
0
 10
81.7
 20
-40.595
 42
0.0
  0
SEQEND
  0
POLYLINE
  8
0
 66
     1
 10
0.0
 20
0.0
 30
0.0
 70
     1
  0
VERTEX
  8
0
 10
36.5
 20
-61.695
 42
-1.0
  0
VERTEX
  8
0
 10
36.5
 20
-59.095
 42
0.0
  0
VERTEX
  8
0
 10
41.5
 20
-59.095
 42
-1.0
  0
VERTEX
  8
0
 10
41.5
 20
-61.695
 42
0.0
  0
SEQEND
  0
POLYLINE
  8
0
 66
     1
 10
0.0
 20
0.0
 30
0.0
 70
     1
  0
VERTEX
  8
0
 10
1.3
 20
-40.595
 42
0.0
  0
VERTEX
  8
0
 10
-3.3
 20
-40.595
 42
0.0
  0
VERTEX
  8
0
 10
-3.3
 20
-55.195
 42
0.0
  0
VERTEX
  8
0
 10
1.3
 20
-55.195
 42
0.0
  0
SEQEND
  0
POLYLINE
  8
0
 66
     1
 10
0.0
 20
0.0
 30
0.0
 70
     1
  0
VERTEX
  8
0
 10
-23.5
 20
-61.695
 42
-1.0
  0
VERTEX
  8
0
 10
-23.5
 20
-59.095
 42
0.0
  0
VERTEX
  8
0
 10
-18.5
 20
-59.095
 42
-1.0
  0
VERTEX
  8
0
 10
-18.5
 20
-61.695
 42
0.0
  0
SEQEND
  0
POLYLINE
  8
0
 66
     1
 10
0.0
 20
0.0
 30
0.0
 70
     1
  0
VERTEX
  8
0
 10
1.3
 20
55.195
 42
0.0
  0
VERTEX
  8
0
 10
-3.3
 20
55.195
 42
0.0
  0
VERTEX
  8
0
 10
-3.3
 20
40.595
 42
0.0
  0
VERTEX
  8
0
 10
1.3
 20
40.595
 42
0.0
  0
SEQEND
  0
POLYLINE
  8
0
 66
     1
 10
0.0
 20
0.0
 30
0.0
 70
     1
  0
VERTEX
  8
0
 10
-83.5
 20
-61.695
 42
-1.0
  0
VERTEX
  8
0
 10
-83.5
 20
-59.095
 42
0.0
  0
VERTEX
  8
0
 10
-78.5
 20
-59.095
 42
-1.0
  0
VERTEX
  8
0
 10
-78.5
 20
-61.695
 42
0.0
  0
SEQEND
  0
POLYLINE
  8
0
 66
     1
 10
0.0
 20
0.0
 30
0.0
 70
     1
  0
VERTEX
  8
0
 10
-103.3
 20
-10.7
 42
0.0
  0
VERTEX
  8
0
 10
-103.3
 20
-15.3
 42
0.0
  0
VERTEX
  8
0
 10
-88.7
 20
-15.3
 42
0.0
  0
VERTEX
  8
0
 10
-88.7
 20
-10.7
 42
0.0
  0
SEQEND
  0
POLYLINE
  8
0
 66
     1
 10
0.0
 20
0.0
 30
0.0
 70
     1
  0
VERTEX
  8
0
 10
-23.5
 20
61.695
 42
1.0
  0
VERTEX
  8
0
 10
-23.5
 20
59.095
 42
0.0
  0
VERTEX
  8
0
 10
-18.5
 20
59.095
 42
1.0
  0
VERTEX
  8
0
 10
-18.5
 20
61.695
 42
0.0
  0
SEQEND
  0
POLYLINE
  8
0
 66
     1
 10
0.0
 20
0.0
 30
0.0
 70
     1
  0
VERTEX
  8
0
 10
-83.5
 20
61.695
 42
1.0
  0
VERTEX
  8
0
 10
-83.5
 20
59.095
 42
0.0
  0
VERTEX
  8
0
 10
-78.5
 20
59.095
 42
1.0
  0
VERTEX
  8
0
 10
-78.5
 20
61.695
 42
0.0
  0
SEQEND
  0
POLYLINE
  8
0
 66
     1
 10
0.0
 20
0.0
 30
0.0
 70
     1
  0
VERTEX
  8
0
 10
-93.5
 20
-23.3
 42
1.0
  0
VERTEX
  8
0
 10
-93.5
 20
-20.7
 42
0.0
  0
VERTEX
  8
0
 10
-98.5
 20
-20.7
 42
1.0
  0
VERTEX
  8
0
 10
-98.5
 20
-23.3
 42
0.0
  0
SEQEND
  0
POLYLINE
  8
0
 66
     1
 10
0.0
 20
0.0
 30
0.0
 70
     1
  0
VERTEX
  8
0
 10
96.5
 20
61.695
 42
1.0
  0
VERTEX
  8
0
 10
96.5
 20
59.095
 42
0.0
  0
VERTEX
  8
0
 10
101.5
 20
59.095
 42
1.0
  0
VERTEX
  8
0
 10
101.5
 20
61.695
 42
0.0
  0
SEQEND
  0
ENDSEC
  0
EOF
