  0
SECTION
  2
HEADER
  9
$ACADVER
  1
AC1009
  9
$EXTMAX
 10
70.3606567382813
 20
162.84880065918
 30
0.0
  9
$EXTMIN
 10
-70.3606567382813
 20
-0.2000000029802
 30
0.0
  9
$INSUNITS
 70
     4
  9
$LUNITS
 70
     2
  9
$LUPREC
 70
     4
  9
$MEASUREMENT
 70
     1
  0
ENDSEC
  0
SECTION
  2
TABLES
  0
TABLE
  2
LAYER
 70
     1
  0
LAYER
  2
0
 70
     0
 62
     7
  6
Continuous
  0
ENDTAB
  0
TABLE
  2
APPID
 70
     1
  0
APPID
  2
ACAD
 70
     0
  0
ENDTAB
  0
ENDSEC
  0
SECTION
  2
ENTITIES
  0
POLYLINE
  8
0
 66
     1
 10
0.0
 20
0.0
 30
0.0
 70
     1
  0
VERTEX
  8
0
 10
10.7000000000001
 20
140.4487994838
 42
0.0
  0
VERTEX
  8
0
 10
15.5
 20
140.4487994838
 42
0.4142135623731
  0
VERTEX
  8
0
 10
15.7
 20
140.6487994838
 42
0.0
  0
VERTEX
  8
0
 10
15.7
 20
155.6487994838
 42
0.4142135623731
  0
VERTEX
  8
0
 10
15.5
 20
155.8487994838
 42
0.0
  0
VERTEX
  8
0
 10
10.7
 20
155.8487994838
 42
0.0
  0
VERTEX
  8
0
 10
10.7
 20
162.6487994838
 42
0.4142135623731
  0
VERTEX
  8
0
 10
10.5
 20
162.8487994838
 42
0.0
  0
VERTEX
  8
0
 10
-10.5
 20
162.8487994838
 42
0.4142135623731
  0
VERTEX
  8
0
 10
-10.7
 20
162.6487994838
 42
0.0
  0
VERTEX
  8
0
 10
-10.7
 20
155.8487994838
 42
0.0
  0
VERTEX
  8
0
 10
-15.5
 20
155.8487994838
 42
0.4142135623731
  0
VERTEX
  8
0
 10
-15.7
 20
155.6487994838
 42
0.0
  0
VERTEX
  8
0
 10
-15.7
 20
140.6487994838
 42
0.4142135623731
  0
VERTEX
  8
0
 10
-15.5
 20
140.4487994838
 42
0.0
  0
VERTEX
  8
0
 10
-10.7000000000001
 20
140.4487994838
 42
0.0
  0
VERTEX
  8
0
 10
-10.7
 20
137.1196808704
 42
0.3819660112502
  0
VERTEX
  8
0
 10
-10.5222222222221
 20
136.9209192724
 42
-0.8944271910006
  0
VERTEX
  8
0
 10
-10.5222222222253
 20
128.3741705584
 42
0.3819660112505
  0
VERTEX
  8
0
 10
-10.7000000000033
 20
128.1754089604
 42
0.0
  0
VERTEX
  8
0
 10
-10.7000000000001
 20
119.986515986
 42
0.0
  0
VERTEX
  8
0
 10
-15.5
 20
119.986515986
 42
0.2986192376325
  0
VERTEX
  8
0
 10
-15.6834211277953
 20
119.866244838232
 42
0.0
  0
VERTEX
  8
0
 10
-21.8279846975617
 20
105.730298462231
 42
0.0
  0
VERTEX
  8
0
 10
-26.2300917646648
 20
107.643790915894
 42
0.4142135623785
  0
VERTEX
  8
0
 10
-26.4932417446956
 20
107.540098640332
 42
0.0
  0
VERTEX
  8
0
 10
-32.4729056620956
 20
93.7835140556318
 42
0.4142135623731
  0
VERTEX
  8
0
 10
-32.3692133865318
 20
93.5203640756044
 42
0.0
  0
VERTEX
  8
0
 10
-27.9671063194283
 20
91.6068716220366
 42
0.0
  0
VERTEX
  8
0
 10
-59.6991895080629
 20
18.605262759527
 42
0.0
  0
VERTEX
  8
0
 10
-64.1012965751682
 20
20.5187552130956
 42
0.4142135623723
  0
VERTEX
  8
0
 10
-64.3644465551954
 20
20.4150629375323
 42
0.0
  0
VERTEX
  8
0
 10
-70.3441104725954
 20
6.6584783529323
 42
0.4142135623739
  0
VERTEX
  8
0
 10
-70.2404181970318
 20
6.3953283729044
 42
0.0
  0
VERTEX
  8
0
 10
-65.8383111299274
 20
4.4818359193363
 42
0.0
  0
VERTEX
  8
0
 10
-67.7518035834956
 20
0.0797288522318
 42
0.5400973141634
  0
VERTEX
  8
0
 10
-67.5683824557
 20
-0.2
 42
0.0
  0
VERTEX
  8
0
 10
67.5683824557
 20
-0.2
 42
0.5400973141634
  0
VERTEX
  8
0
 10
67.7518035834956
 20
0.0797288522318
 42
0.0
  0
VERTEX
  8
0
 10
65.8383111299274
 20
4.4818359193363
 42
0.0
  0
VERTEX
  8
0
 10
70.2404181970318
 20
6.3953283729044
 42
0.4142135623739
  0
VERTEX
  8
0
 10
70.3441104725954
 20
6.6584783529323
 42
0.0
  0
VERTEX
  8
0
 10
64.3644465551954
 20
20.4150629375323
 42
0.4142135623723
  0
VERTEX
  8
0
 10
64.1012965751682
 20
20.5187552130956
 42
0.0
  0
VERTEX
  8
0
 10
59.6991895080629
 20
18.605262759527
 42
0.0
  0
VERTEX
  8
0
 10
27.9671063194283
 20
91.6068716220367
 42
0.0
  0
VERTEX
  8
0
 10
32.3692133865318
 20
93.5203640756044
 42
0.4142135623731
  0
VERTEX
  8
0
 10
32.4729056620956
 20
93.7835140556318
 42
0.0
  0
VERTEX
  8
0
 10
26.4932417446956
 20
107.540098640332
 42
0.4142135623785
  0
VERTEX
  8
0
 10
26.2300917646648
 20
107.643790915894
 42
0.0
  0
VERTEX
  8
0
 10
21.8279846975617
 20
105.730298462231
 42
0.0
  0
VERTEX
  8
0
 10
15.6834211277953
 20
119.866244838232
 42
0.2986192376325
  0
VERTEX
  8
0
 10
15.5
 20
119.986515986
 42
0.0
  0
VERTEX
  8
0
 10
10.7000000000001
 20
119.986515986
 42
0.0
  0
VERTEX
  8
0
 10
10.7000000000033
 20
128.1754089604
 42
0.3819660112505
  0
VERTEX
  8
0
 10
10.5222222222253
 20
128.3741705584
 42
-0.8944271910006
  0
VERTEX
  8
0
 10
10.5222222222221
 20
136.9209192724
 42
0.3819660112502
  0
VERTEX
  8
0
 10
10.7
 20
137.1196808704
 42
0.0
  0
SEQEND
  0
POLYLINE
  8
0
 66
     1
 10
0.0
 20
0.0
 30
0.0
 70
     1
  0
VERTEX
  8
0
 10
-52.4941554261707
 20
26.6519793387079
 42
1.0
  0
VERTEX
  8
0
 10
-50.1096807648932
 20
25.6155042596373
 42
0.0
  0
VERTEX
  8
0
 10
-48.1164594590305
 20
30.2010324544895
 42
1.0
  0
VERTEX
  8
0
 10
-50.5009341204058
 20
31.2375075335651
 42
0.0
  0
SEQEND
  0
POLYLINE
  8
0
 66
     1
 10
0.0
 20
0.0
 30
0.0
 70
     1
  0
VERTEX
  8
0
 10
4.3
 20
153.6488527168
 42
0.5773502691896
  0
VERTEX
  8
0
 10
-2.15
 20
157.372761953073
 42
0.5773502691896
  0
VERTEX
  8
0
 10
-2.15
 20
149.924943480527
 42
0.5773502691896
  0
SEQEND
  0
POLYLINE
  8
0
 66
     1
 10
0.0
 20
0.0
 30
0.0
 70
     1
  0
VERTEX
  8
0
 10
-55.6925867794999
 20
8.6488785971
 42
0.5773502691896
  0
VERTEX
  8
0
 10
-62.1425867795
 20
12.3727878333731
 42
0.5773502691896
  0
VERTEX
  8
0
 10
-62.1425867795
 20
4.9249693608269
 42
0.5773502691896
  0
SEQEND
  0
POLYLINE
  8
0
 66
     1
 10
0.0
 20
0.0
 30
0.0
 70
     1
  0
VERTEX
  8
0
 10
64.2925867795
 20
8.6488785971
 42
0.5773502691896
  0
VERTEX
  8
0
 10
57.8425867795
 20
12.3727878333731
 42
0.5773502691896
  0
VERTEX
  8
0
 10
57.8425867795
 20
4.9249693608269
 42
0.5773502691896
  0
SEQEND
  0
POLYLINE
  8
0
 66
     1
 10
0.0
 20
0.0
 30
0.0
 70
     1
  0
VERTEX
  8
0
 10
-10.7
 20
49.8
 42
0.0
  0
VERTEX
  8
0
 10
-15.3
 20
49.8
 42
0.0
  0
VERTEX
  8
0
 10
-15.3
 20
35.2
 42
0.0
  0
VERTEX
  8
0
 10
-10.7
 20
35.2
 42
0.0
  0
SEQEND
  0
POLYLINE
  8
0
 66
     1
 10
0.0
 20
0.0
 30
0.0
 70
     1
  0
VERTEX
  8
0
 10
15.3
 20
49.8
 42
0.0
  0
VERTEX
  8
0
 10
10.7
 20
49.8
 42
0.0
  0
VERTEX
  8
0
 10
10.7
 20
35.2
 42
0.0
  0
VERTEX
  8
0
 10
15.3
 20
35.2
 42
0.0
  0
SEQEND
  0
POLYLINE
  8
0
 66
     1
 10
0.0
 20
0.0
 30
0.0
 70
     1
  0
VERTEX
  8
0
 10
50.5009341204042
 20
31.2375075335687
 42
0.0
  0
VERTEX
  8
0
 10
52.4941554261681
 20
26.6519793387139
 42
-1.0
  0
VERTEX
  8
0
 10
50.1096807648932
 20
25.6155042596373
 42
0.0
  0
VERTEX
  8
0
 10
48.1164594590305
 20
30.2010324544895
 42
-1.0
  0
SEQEND
  0
POLYLINE
  8
0
 66
     1
 10
0.0
 20
0.0
 30
0.0
 70
     1
  0
VERTEX
  8
0
 10
22.7759969888708
 20
95.0204304568079
 42
-1.0
  0
VERTEX
  8
0
 10
20.3915223275932
 20
93.9839553777373
 42
0.0
  0
VERTEX
  8
0
 10
18.3983010217304
 20
98.5694835725894
 42
-1.0
  0
VERTEX
  8
0
 10
20.7827756831058
 20
99.6059586516651
 42
0.0
  0
SEQEND
  0
POLYLINE
  8
0
 66
     1
 10
0.0
 20
0.0
 30
0.0
 70
     1
  0
VERTEX
  8
0
 10
-20.7827756831042
 20
99.6059586516687
 42
0.0
  0
VERTEX
  8
0
 10
-22.7759969888681
 20
95.0204304568139
 42
1.0
  0
VERTEX
  8
0
 10
-20.3915223275932
 20
93.9839553777373
 42
0.0
  0
VERTEX
  8
0
 10
-18.3983010217304
 20
98.5694835725894
 42
1.0
  0
SEQEND
  0
ENDSEC
  0
EOF
