  0
SECTION
  2
HEADER
  9
$ACADVER
  1
AC1009
  9
$EXTMAX
 10
66.7402648925781
 20
25.2000007629395
 30
0.0
  9
$EXTMIN
 10
-66.7402648925781
 20
-5.1999998092651
 30
0.0
  9
$INSUNITS
 70
     4
  9
$LUNITS
 70
     2
  9
$LUPREC
 70
     4
  9
$MEASUREMENT
 70
     1
  0
ENDSEC
  0
SECTION
  2
TABLES
  0
TABLE
  2
LAYER
 70
     1
  0
LAYER
  2
0
 70
     0
 62
     7
  6
Continuous
  0
ENDTAB
  0
TABLE
  2
APPID
 70
     1
  0
APPID
  2
ACAD
 70
     0
  0
ENDTAB
  0
ENDSEC
  0
SECTION
  2
ENTITIES
  0
POLYLINE
  8
0
 66
     1
 10
0.0
 20
0.0
 30
0.0
 70
     1
  0
VERTEX
  8
0
 10
54.5280877213
 20
25.2
 42
0.0
  0
VERTEX
  8
0
 10
-54.5280877213
 20
25.2
 42
0.2986192376333
  0
VERTEX
  8
0
 10
-54.7115088490955
 20
25.0797288522319
 42
0.0
  0
VERTEX
  8
0
 10
-58.0720148303637
 20
17.3486781749274
 42
0.0
  0
VERTEX
  8
0
 10
-62.4741218974682
 20
19.2621706284956
 42
0.4142135623731
  0
VERTEX
  8
0
 10
-62.7372718774956
 20
19.1584783529318
 42
0.0
  0
VERTEX
  8
0
 10
-66.7237144890956
 20
9.9874219631318
 42
0.4142135623708
  0
VERTEX
  8
0
 10
-66.6200222135333
 20
9.7242719831051
 42
0.0
  0
VERTEX
  8
0
 10
-62.2179151465268
 20
7.8107795295377
 42
0.0
  0
VERTEX
  8
0
 10
-65.5784211277955
 20
0.0797288522319
 42
0.5400973141635
  0
VERTEX
  8
0
 10
-65.395
 20
-0.2
 42
0.0
  0
VERTEX
  8
0
 10
-55.595
 20
-0.2
 42
0.0
  0
VERTEX
  8
0
 10
-55.595
 20
-5.0
 42
0.4142135623731
  0
VERTEX
  8
0
 10
-55.395
 20
-5.2
 42
0.0
  0
VERTEX
  8
0
 10
-40.395
 20
-5.2
 42
0.4142135623731
  0
VERTEX
  8
0
 10
-40.195
 20
-5.0
 42
0.0
  0
VERTEX
  8
0
 10
-40.195
 20
-0.2
 42
0.0
  0
VERTEX
  8
0
 10
40.195
 20
-0.2
 42
0.0
  0
VERTEX
  8
0
 10
40.195
 20
-5.0
 42
0.4142135623731
  0
VERTEX
  8
0
 10
40.395
 20
-5.2
 42
0.0
  0
VERTEX
  8
0
 10
55.395
 20
-5.2
 42
0.4142135623731
  0
VERTEX
  8
0
 10
55.595
 20
-5.0
 42
0.0
  0
VERTEX
  8
0
 10
55.595
 20
-0.2
 42
0.0
  0
VERTEX
  8
0
 10
65.395
 20
-0.2
 42
0.5400973141635
  0
VERTEX
  8
0
 10
65.5784211277955
 20
0.0797288522319
 42
0.0
  0
VERTEX
  8
0
 10
62.2179151465268
 20
7.8107795295377
 42
0.0
  0
VERTEX
  8
0
 10
66.6200222135333
 20
9.7242719831051
 42
0.4142135623708
  0
VERTEX
  8
0
 10
66.7237144890956
 20
9.9874219631318
 42
0.0
  0
VERTEX
  8
0
 10
62.7372718774956
 20
19.1584783529318
 42
0.4142135623731
  0
VERTEX
  8
0
 10
62.4741218974682
 20
19.2621706284956
 42
0.0
  0
VERTEX
  8
0
 10
58.0720148303637
 20
17.3486781749274
 42
0.0
  0
VERTEX
  8
0
 10
54.7115088490955
 20
25.0797288522319
 42
0.2986192376333
  0
SEQEND
  0
ENDSEC
  0
EOF
