  0
SECTION
  2
HEADER
  9
$ACADVER
  1
AC1009
  9
$EXTMAX
 10
0.2000000029802
 20
175.199996948242
 30
0.0
  9
$EXTMIN
 10
-220.199996948242
 20
-0.2000000029802
 30
0.0
  9
$INSUNITS
 70
     4
  9
$LUNITS
 70
     2
  9
$LUPREC
 70
     4
  9
$MEASUREMENT
 70
     1
  0
ENDSEC
  0
SECTION
  2
TABLES
  0
TABLE
  2
LAYER
 70
     1
  0
LAYER
  2
0
 70
     0
 62
     7
  6
Continuous
  0
ENDTAB
  0
TABLE
  2
APPID
 70
     1
  0
APPID
  2
ACAD
 70
     0
  0
ENDTAB
  0
ENDSEC
  0
SECTION
  2
ENTITIES
  0
POLYLINE
  8
0
 66
     1
 10
0.0
 20
0.0
 30
0.0
 70
     1
  0
VERTEX
  8
0
 10
0.0
 20
4.7480653618
 42
0.0
  0
VERTEX
  8
0
 10
-4.8
 20
4.7480653618
 42
0.0
  0
VERTEX
  8
0
 10
-4.8
 20
19.3480653618
 42
0.0
  0
VERTEX
  8
0
 10
0.0
 20
19.3480653618
 42
0.4142135623731
  0
VERTEX
  8
0
 10
0.2
 20
19.5480653618
 42
0.0
  0
VERTEX
  8
0
 10
0.2
 20
99.5480653618
 42
0.4142135623731
  0
VERTEX
  8
0
 10
0.0
 20
99.7480653618
 42
0.0
  0
VERTEX
  8
0
 10
-4.8
 20
99.7480653618
 42
0.0
  0
VERTEX
  8
0
 10
-4.8
 20
114.3480653618
 42
0.0
  0
VERTEX
  8
0
 10
0.0
 20
114.3480653618
 42
0.4142135623731
  0
VERTEX
  8
0
 10
0.2
 20
114.5480653618
 42
0.0
  0
VERTEX
  8
0
 10
0.2
 20
130.1617164999
 42
0.4142135623731
  0
VERTEX
  8
0
 10
0.0
 20
130.3617164999
 42
0.0
  0
VERTEX
  8
0
 10
-29.8
 20
130.3617164999
 42
0.0
  0
VERTEX
  8
0
 10
-29.8
 20
169.0435003609
 42
0.4142135623731
  0
VERTEX
  8
0
 10
-30.0
 20
169.2435003609
 42
0.0
  0
VERTEX
  8
0
 10
-39.8
 20
169.2435003609
 42
0.0
  0
VERTEX
  8
0
 10
-39.8
 20
175.0
 42
0.4142135623731
  0
VERTEX
  8
0
 10
-40.0
 20
175.2
 42
0.0
  0
VERTEX
  8
0
 10
-55.0
 20
175.2
 42
0.4142135623731
  0
VERTEX
  8
0
 10
-55.2
 20
175.0
 42
0.0
  0
VERTEX
  8
0
 10
-55.1999999999999
 20
169.2435003609
 42
0.0
  0
VERTEX
  8
0
 10
-65.0
 20
169.2435003609
 42
0.4142135623731
  0
VERTEX
  8
0
 10
-65.2
 20
169.0435003609
 42
0.0
  0
VERTEX
  8
0
 10
-65.2
 20
45.0
 42
-0.4142135623731
  0
VERTEX
  8
0
 10
-75.0
 20
35.2
 42
0.0
  0
VERTEX
  8
0
 10
-210.0
 20
35.2
 42
0.4142135623731
  0
VERTEX
  8
0
 10
-220.2
 20
25.0
 42
0.0
  0
VERTEX
  8
0
 10
-220.2
 20
0.0
 42
0.4142135623731
  0
VERTEX
  8
0
 10
-220.0
 20
-0.2
 42
0.0
  0
VERTEX
  8
0
 10
-205.0
 20
-0.2
 42
0.4142135623731
  0
VERTEX
  8
0
 10
-204.8
 20
0.0
 42
0.0
  0
VERTEX
  8
0
 10
-204.8
 20
4.8
 42
0.0
  0
VERTEX
  8
0
 10
-190.2
 20
4.8
 42
0.0
  0
VERTEX
  8
0
 10
-190.2
 20
0.0
 42
0.4142135623731
  0
VERTEX
  8
0
 10
-190.0
 20
-0.2
 42
0.0
  0
VERTEX
  8
0
 10
-175.0
 20
-0.2
 42
0.4142135623731
  0
VERTEX
  8
0
 10
-174.8
 20
0.0
 42
0.0
  0
VERTEX
  8
0
 10
-174.8
 20
4.8
 42
0.0
  0
VERTEX
  8
0
 10
-160.2
 20
4.8
 42
0.0
  0
VERTEX
  8
0
 10
-160.2
 20
0.0
 42
0.4142135623731
  0
VERTEX
  8
0
 10
-160.0
 20
-0.2
 42
0.0
  0
VERTEX
  8
0
 10
-145.0
 20
-0.2
 42
0.4142135623731
  0
VERTEX
  8
0
 10
-144.8
 20
0.0
 42
0.0
  0
VERTEX
  8
0
 10
-144.8
 20
4.8
 42
0.0
  0
VERTEX
  8
0
 10
-130.2
 20
4.8
 42
0.0
  0
VERTEX
  8
0
 10
-130.2
 20
0.0
 42
0.4142135623731
  0
VERTEX
  8
0
 10
-130.0
 20
-0.2
 42
0.0
  0
VERTEX
  8
0
 10
-115.0
 20
-0.2
 42
0.4142135623731
  0
VERTEX
  8
0
 10
-114.8
 20
0.0
 42
0.0
  0
VERTEX
  8
0
 10
-114.8
 20
4.8
 42
0.0
  0
VERTEX
  8
0
 10
-100.2
 20
4.8
 42
0.0
  0
VERTEX
  8
0
 10
-100.2
 20
0.0
 42
0.4142135623731
  0
VERTEX
  8
0
 10
-100.0
 20
-0.2
 42
0.0
  0
VERTEX
  8
0
 10
-85.0
 20
-0.2
 42
0.4142135623731
  0
VERTEX
  8
0
 10
-84.8
 20
0.0
 42
0.0
  0
VERTEX
  8
0
 10
-84.8
 20
4.8
 42
0.0
  0
VERTEX
  8
0
 10
-70.2
 20
4.8
 42
0.0
  0
VERTEX
  8
0
 10
-70.2
 20
0.0
 42
0.4142135623731
  0
VERTEX
  8
0
 10
-70.0
 20
-0.2
 42
0.0
  0
VERTEX
  8
0
 10
-55.0
 20
-0.2
 42
0.4142135623731
  0
VERTEX
  8
0
 10
-54.8
 20
0.0
 42
0.0
  0
VERTEX
  8
0
 10
-54.8
 20
4.8
 42
0.0
  0
VERTEX
  8
0
 10
-40.2
 20
4.8
 42
0.0
  0
VERTEX
  8
0
 10
-40.2
 20
0.0
 42
0.4142135623731
  0
VERTEX
  8
0
 10
-40.0
 20
-0.2
 42
0.0
  0
VERTEX
  8
0
 10
-25.0
 20
-0.2
 42
0.4142135623731
  0
VERTEX
  8
0
 10
-24.8
 20
0.0
 42
0.0
  0
VERTEX
  8
0
 10
-24.8
 20
4.8
 42
0.0
  0
VERTEX
  8
0
 10
-10.2
 20
4.8
 42
0.0
  0
VERTEX
  8
0
 10
-10.2
 20
0.0
 42
0.4142135623731
  0
VERTEX
  8
0
 10
-10.0
 20
-0.2
 42
0.0
  0
VERTEX
  8
0
 10
0.0
 20
-0.2
 42
0.4142135623731
  0
VERTEX
  8
0
 10
0.2
 20
0.0
 42
0.0
  0
VERTEX
  8
0
 10
0.2
 20
4.5480653618
 42
0.4142135623731
  0
SEQEND
  0
POLYLINE
  8
0
 66
     1
 10
0.0
 20
0.0
 30
0.0
 70
     1
  0
VERTEX
  8
0
 10
-10.7
 20
15.0
 42
0.5773502691896
  0
VERTEX
  8
0
 10
-12.65
 20
16.1258330249198
 42
0.5773502691896
  0
VERTEX
  8
0
 10
-12.65
 20
13.8741669750802
 42
0.5773502691896
  0
SEQEND
  0
POLYLINE
  8
0
 66
     1
 10
0.0
 20
0.0
 30
0.0
 70
     1
  0
VERTEX
  8
0
 10
-8.7
 20
110.1617164999
 42
1.0
  0
VERTEX
  8
0
 10
-11.3
 20
110.1617164999
 42
0.0
  0
VERTEX
  8
0
 10
-11.3
 20
105.1617164999
 42
1.0
  0
VERTEX
  8
0
 10
-8.7
 20
105.1617164999
 42
0.0
  0
SEQEND
  0
POLYLINE
  8
0
 66
     1
 10
0.0
 20
0.0
 30
0.0
 70
     1
  0
VERTEX
  8
0
 10
-195.2
 20
23.4298365953999
 42
0.0
  0
VERTEX
  8
0
 10
-199.8
 20
23.4298365954
 42
0.0
  0
VERTEX
  8
0
 10
-199.8
 20
13.8298365954
 42
0.0
  0
VERTEX
  8
0
 10
-195.2
 20
13.8298365954
 42
0.0
  0
SEQEND
  0
POLYLINE
  8
0
 66
     1
 10
0.0
 20
0.0
 30
0.0
 70
     1
  0
VERTEX
  8
0
 10
-8.7
 20
35.0
 42
1.0
  0
VERTEX
  8
0
 10
-11.3
 20
35.0
 42
0.0
  0
VERTEX
  8
0
 10
-11.3
 20
30.0
 42
1.0
  0
VERTEX
  8
0
 10
-8.7
 20
30.0
 42
0.0
  0
SEQEND
  0
POLYLINE
  8
0
 66
     1
 10
0.0
 20
0.0
 30
0.0
 70
     1
  0
VERTEX
  8
0
 10
-30.0
 20
8.7
 42
1.0
  0
VERTEX
  8
0
 10
-30.0
 20
11.3
 42
0.0
  0
VERTEX
  8
0
 10
-35.0
 20
11.3
 42
1.0
  0
VERTEX
  8
0
 10
-35.0
 20
8.7
 42
0.0
  0
SEQEND
  0
POLYLINE
  8
0
 66
     1
 10
0.0
 20
0.0
 30
0.0
 70
     1
  0
VERTEX
  8
0
 10
-35.5
 20
132.3617164999
 42
1.0
  0
VERTEX
  8
0
 10
-35.5
 20
134.9617164999
 42
0.0
  0
VERTEX
  8
0
 10
-40.5
 20
134.9617164999
 42
1.0
  0
VERTEX
  8
0
 10
-40.5
 20
132.3617164999
 42
0.0
  0
SEQEND
  0
POLYLINE
  8
0
 66
     1
 10
0.0
 20
0.0
 30
0.0
 70
     1
  0
VERTEX
  8
0
 10
-90.0
 20
8.7
 42
1.0
  0
VERTEX
  8
0
 10
-90.0
 20
11.3
 42
0.0
  0
VERTEX
  8
0
 10
-95.0
 20
11.3
 42
1.0
  0
VERTEX
  8
0
 10
-95.0
 20
8.7
 42
0.0
  0
SEQEND
  0
POLYLINE
  8
0
 66
     1
 10
0.0
 20
0.0
 30
0.0
 70
     1
  0
VERTEX
  8
0
 10
-54.8000000000001
 20
136.798152074
 42
0.0
  0
VERTEX
  8
0
 10
-54.8000000000001
 20
130.3617164999
 42
0.0
  0
VERTEX
  8
0
 10
-45.1999999999999
 20
130.3617164999
 42
0.0
  0
VERTEX
  8
0
 10
-45.2000000000001
 20
136.798152074
 42
0.0
  0
SEQEND
  0
POLYLINE
  8
0
 66
     1
 10
0.0
 20
0.0
 30
0.0
 70
     1
  0
VERTEX
  8
0
 10
-45.5
 20
162.7
 42
1.0
  0
VERTEX
  8
0
 10
-45.5
 20
165.3
 42
0.0
  0
VERTEX
  8
0
 10
-50.5
 20
165.3
 42
1.0
  0
VERTEX
  8
0
 10
-50.5
 20
162.7
 42
0.0
  0
SEQEND
  0
POLYLINE
  8
0
 66
     1
 10
0.0
 20
0.0
 30
0.0
 70
     1
  0
VERTEX
  8
0
 10
-150.0
 20
8.7
 42
1.0
  0
VERTEX
  8
0
 10
-150.0
 20
11.3
 42
0.0
  0
VERTEX
  8
0
 10
-155.0
 20
11.3
 42
1.0
  0
VERTEX
  8
0
 10
-155.0
 20
8.7
 42
0.0
  0
SEQEND
  0
POLYLINE
  8
0
 66
     1
 10
0.0
 20
0.0
 30
0.0
 70
     1
  0
VERTEX
  8
0
 10
-114.8
 20
13.8298365954
 42
0.0
  0
VERTEX
  8
0
 10
-110.2
 20
13.8298365954
 42
0.0
  0
VERTEX
  8
0
 10
-110.2
 20
23.4298365954
 42
0.0
  0
VERTEX
  8
0
 10
-114.8
 20
23.4298365954
 42
0.0
  0
SEQEND
  0
POLYLINE
  8
0
 66
     1
 10
0.0
 20
0.0
 30
0.0
 70
     1
  0
VERTEX
  8
0
 10
-35.5
 20
121.8617164999
 42
1.0
  0
VERTEX
  8
0
 10
-35.5
 20
124.4617164999
 42
0.0
  0
VERTEX
  8
0
 10
-40.5
 20
124.4617164999
 42
1.0
  0
VERTEX
  8
0
 10
-40.5
 20
121.8617164999
 42
0.0
  0
SEQEND
  0
POLYLINE
  8
0
 66
     1
 10
0.0
 20
0.0
 30
0.0
 70
     1
  0
VERTEX
  8
0
 10
-215.0
 20
11.3
 42
1.0
  0
VERTEX
  8
0
 10
-215.0
 20
8.7
 42
0.0
  0
VERTEX
  8
0
 10
-210.0
 20
8.7
 42
1.0
  0
VERTEX
  8
0
 10
-210.0
 20
11.3
 42
0.0
  0
SEQEND
  0
ENDSEC
  0
EOF
