  0
SECTION
  2
HEADER
  9
$ACADVER
  1
AC1009
  9
$EXTMAX
 10
30.1982402801514
 20
176.984756469727
 30
0.0
  9
$EXTMIN
 10
-50.2000007629395
 20
-5.1999998092651
 30
0.0
  9
$INSUNITS
 70
     4
  9
$LUNITS
 70
     2
  9
$LUPREC
 70
     4
  9
$MEASUREMENT
 70
     1
  0
ENDSEC
  0
SECTION
  2
TABLES
  0
TABLE
  2
LAYER
 70
     1
  0
LAYER
  2
0
 70
     0
 62
     7
  6
Continuous
  0
ENDTAB
  0
TABLE
  2
APPID
 70
     1
  0
APPID
  2
ACAD
 70
     0
  0
ENDTAB
  0
ENDSEC
  0
SECTION
  2
ENTITIES
  0
POLYLINE
  8
0
 66
     1
 10
0.0
 20
0.0
 30
0.0
 70
     1
  0
VERTEX
  8
0
 10
-4.8
 20
-0.2
 42
0.0
  0
VERTEX
  8
0
 10
0.0
 20
-0.2
 42
0.4142135623731
  0
VERTEX
  8
0
 10
0.2
 20
0.0
 42
0.0
  0
VERTEX
  8
0
 10
0.2
 20
29.8
 42
0.0
  0
VERTEX
  8
0
 10
5.0
 20
29.8
 42
0.4142135623731
  0
VERTEX
  8
0
 10
5.2
 20
30.0
 42
0.0
  0
VERTEX
  8
0
 10
5.2
 20
45.0
 42
0.4142135623731
  0
VERTEX
  8
0
 10
5.0
 20
45.2
 42
0.0
  0
VERTEX
  8
0
 10
0.2
 20
45.2
 42
0.0
  0
VERTEX
  8
0
 10
0.2
 20
114.586515986
 42
0.0
  0
VERTEX
  8
0
 10
5.0
 20
114.586515986
 42
0.4142135623731
  0
VERTEX
  8
0
 10
10.2
 20
119.786515986
 42
0.0
  0
VERTEX
  8
0
 10
10.2
 20
148.4531826526
 42
-0.3027756377322
  0
VERTEX
  8
0
 10
13.1538461538239
 20
152.883951883385
 42
0.0
  0
VERTEX
  8
0
 10
23.923076923071
 20
157.371131370613
 42
1.0305210025036
  0
VERTEX
  8
0
 10
15.5182992386838
 20
175.949177077911
 42
0.0
  0
VERTEX
  8
0
 10
-25.0878764855161
 20
156.087618647311
 42
0.2864409100954
  0
VERTEX
  8
0
 10
-25.2
 20
155.9079586259
 42
0.0
  0
VERTEX
  8
0
 10
-25.2
 20
114.986515986
 42
0.0
  0
VERTEX
  8
0
 10
-39.8000000000001
 20
114.986515986
 42
0.0
  0
VERTEX
  8
0
 10
-39.8
 20
121.0562496015
 42
0.4142135623731
  0
VERTEX
  8
0
 10
-40.0
 20
121.2562496015
 42
0.0
  0
VERTEX
  8
0
 10
-50.0
 20
121.2562496015
 42
0.4142135623731
  0
VERTEX
  8
0
 10
-50.2
 20
121.0562496015
 42
0.0
  0
VERTEX
  8
0
 10
-50.2
 20
109.786515986
 42
0.2278377915827
  0
VERTEX
  8
0
 10
-50.1249390095109
 20
109.630342224111
 42
0.0
  0
VERTEX
  8
0
 10
-25.2
 20
89.6903910165027
 42
0.0
  0
VERTEX
  8
0
 10
-25.2
 20
0.0
 42
0.4142135623731
  0
VERTEX
  8
0
 10
-25.0
 20
-0.2
 42
0.0
  0
VERTEX
  8
0
 10
-20.2
 20
-0.2
 42
0.0
  0
VERTEX
  8
0
 10
-20.2
 20
-5.0
 42
0.4142135623731
  0
VERTEX
  8
0
 10
-20.0
 20
-5.2
 42
0.0
  0
VERTEX
  8
0
 10
-5.0
 20
-5.2
 42
0.4142135623731
  0
VERTEX
  8
0
 10
-4.8
 20
-5.0
 42
0.0
  0
SEQEND
  0
POLYLINE
  8
0
 66
     1
 10
0.0
 20
0.0
 30
0.0
 70
     1
  0
VERTEX
  8
0
 10
-5.2
 20
153.1488261003
 42
0.5773502691896
  0
VERTEX
  8
0
 10
-8.65
 20
155.140684529004
 42
0.5773502691896
  0
VERTEX
  8
0
 10
-8.65
 20
151.156967671596
 42
0.5773502691896
  0
SEQEND
  0
POLYLINE
  8
0
 66
     1
 10
0.0
 20
0.0
 30
0.0
 70
     1
  0
VERTEX
  8
0
 10
12.5808519897928
 20
167.3701625386
 42
0.5773502691896
  0
VERTEX
  8
0
 10
9.8808519898036
 20
168.929008265406
 42
0.5773502691896
  0
VERTEX
  8
0
 10
9.8808519898036
 20
165.811316811794
 42
0.5773502691896
  0
SEQEND
  0
POLYLINE
  8
0
 66
     1
 10
0.0
 20
0.0
 30
0.0
 70
     1
  0
VERTEX
  8
0
 10
21.8
 20
166.786515986
 42
0.5773502691896
  0
VERTEX
  8
0
 10
19.1
 20
168.345361712812
 42
0.5773502691896
  0
VERTEX
  8
0
 10
19.1
 20
165.227670259188
 42
0.5773502691896
  0
SEQEND
  0
POLYLINE
  8
0
 66
     1
 10
0.0
 20
0.0
 30
0.0
 70
     1
  0
VERTEX
  8
0
 10
16.6849732533831
 20
159.0943228842
 42
0.5773502691896
  0
VERTEX
  8
0
 10
13.9849732534085
 20
160.653168610997
 42
0.5773502691896
  0
VERTEX
  8
0
 10
13.9849732534085
 20
157.535477157403
 42
0.5773502691896
  0
SEQEND
  0
POLYLINE
  8
0
 66
     1
 10
0.0
 20
0.0
 30
0.0
 70
     1
  0
VERTEX
  8
0
 10
-7.8
 20
118.8475449154
 42
0.0
  0
VERTEX
  8
0
 10
-3.2
 20
118.8475449154
 42
0.0
  0
VERTEX
  8
0
 10
-3.2
 20
124.1475449154
 42
-0.4142135623731
  0
VERTEX
  8
0
 10
-3.0
 20
124.3475449154
 42
0.0
  0
VERTEX
  8
0
 10
0.8
 20
124.3475449154
 42
0.0
  0
VERTEX
  8
0
 10
0.8
 20
130.9475449154
 42
0.0
  0
VERTEX
  8
0
 10
-3.0
 20
130.9475449154
 42
-0.4142135623731
  0
VERTEX
  8
0
 10
-3.2
 20
131.1475449154
 42
0.0
  0
VERTEX
  8
0
 10
-3.2
 20
136.4475449154
 42
0.0
  0
VERTEX
  8
0
 10
-7.8
 20
136.4475449154
 42
0.0
  0
VERTEX
  8
0
 10
-7.8
 20
134.6475449154
 42
-0.4142135623731
  0
VERTEX
  8
0
 10
-8.0
 20
134.4475449154
 42
0.0
  0
VERTEX
  8
0
 10
-19.8
 20
134.4475449154
 42
0.0
  0
VERTEX
  8
0
 10
-19.8
 20
120.8475449154
 42
0.0
  0
VERTEX
  8
0
 10
-8.0
 20
120.8475449154
 42
-0.4142135623731
  0
VERTEX
  8
0
 10
-7.8
 20
120.6475449154
 42
0.0
  0
SEQEND
  0
POLYLINE
  8
0
 66
     1
 10
0.0
 20
0.0
 30
0.0
 70
     1
  0
VERTEX
  8
0
 10
-12.8
 20
105.1475449154
 42
1.0
  0
VERTEX
  8
0
 10
-10.2
 20
105.1475449154
 42
0.0
  0
VERTEX
  8
0
 10
-10.2
 20
117.1475449154
 42
1.0
  0
VERTEX
  8
0
 10
-12.8
 20
117.1475449154
 42
0.0
  0
SEQEND
  0
POLYLINE
  8
0
 66
     1
 10
0.0
 20
0.0
 30
0.0
 70
     1
  0
VERTEX
  8
0
 10
-35.0
 20
109.586515986
 42
1.0
  0
VERTEX
  8
0
 10
-35.0
 20
106.986515986
 42
0.0
  0
VERTEX
  8
0
 10
-30.0
 20
106.986515986
 42
1.0
  0
VERTEX
  8
0
 10
-30.0
 20
109.586515986
 42
0.0
  0
SEQEND
  0
POLYLINE
  8
0
 66
     1
 10
0.0
 20
0.0
 30
0.0
 70
     1
  0
VERTEX
  8
0
 10
-15.0
 20
7.8
 42
1.0
  0
VERTEX
  8
0
 10
-15.0
 20
5.2
 42
0.0
  0
VERTEX
  8
0
 10
-10.0
 20
5.2
 42
1.0
  0
VERTEX
  8
0
 10
-10.0
 20
7.8
 42
0.0
  0
SEQEND
  0
ENDSEC
  0
EOF
